<svg xmlns="http://www.w3.org/2000/svg" width="1600" height="1600">
  <ellipse style="fill:#fff" cx="797.616" cy="796.727" rx="709.935" ry="732.563" />
  <path fill="#fd5"
    d="M941 780c15.5 88 136.5 86 136.5 86s120.5-55 109.5-81.5-98.1-80.428-139.5-82C1008 701 941 780 941 780ZM445.763 905.932c6.78 59.322 111.017 78.814 111.017 78.814s102.542-30.509 101.695-55.932c-.848-25.424-9.322-43.22-9.322-43.22l-101.695-44.069s-90.678 37.289-101.695 64.407z" />
  <path
    d="M683.772 1472.014c149.2 56.568 287.17-35.607 287.17-35.607-91.218-129.702-92.943-193.388-234.137-140.463-12.02 4.95-47.376 38.891-53.033 176.07zM1264.313 1170.712c-72.264 115.582-37.461 164.82-37.461 164.82s400.95-199.864 37.46-164.82z"
    style="fill:#fd5" />
  <path
    d="M753.275 1595.912c-129.231-9.826-247.993-45.986-357.796-108.938-58.753-33.684-105.728-68.94-152.588-114.518C110.708 1243.888 26.823 1073.158 6.643 891.623-.955 823.278.404 742.787 10.248 678.155 33.562 525.069 109.1 368.819 214.946 254.74c41.214-44.42 107.846-96.76 173.462-136.253 48.694-29.308 131.2-68.56 171.486-81.583C592.66 26.31 642.368 14.81 679.029 9.342c40.766-6.081 70.114-7.937 125.158-7.915 54.448.022 68.943 1.007 115.965 7.88 114.172 16.689 224.363 59.004 321.734 123.55 155.39 103.008 252.483 238.141 328.678 457.454 11.548 33.238 19.958 77.55 25.784 135.849 3.426 34.286 3.437 108.351.02 142.836-13.113 132.391-49.62 243.15-115.411 350.143-49.867 81.098-114.217 152.777-190.44 212.13-69.947 54.469-153.113 98.834-236.722 126.28-58.79 19.3-111.094 30.16-178.191 36.998-19.276 1.964-102.269 2.89-122.33 1.365zm180.9-152.26c-20.506-37.545-28.398-78.03-58.53-109.536-14.43-14.69-21.472-14.895-41.709-1.214-27.989 19.44-47.538 3.614-68.026-12.346-20.148-17.418-33.748-21.602-45.276 3.045-5.576 12.326-7.706 27.449-9.155 65-1.765 45.718-3.838 57.918-13.5 79.433 54.265 16.471 226.925 21.091 236.195-24.382zm-288.66 7.645c23.246-10.763 26.8-19.698 31.358-78.841 3.407-44.209 7.58-64.742 17.711-87.169 8.724-19.308 24.567-37.745 43.494-50.613 31.706-27.434-20.504-111.403-32.893-133.04-26.033-45.038-29.312-50.914-37.488-67.176-15.046-24.158-17.396-50.891-24.648-74.953-81.215 44.137-99.072 41.546-162.95 16.026-11.587 55.541-33.384 107.962-50.67 145.902-22.943 50.156-34.52 79.648-43.024 109.601-3.753 13.22-10.018 41.328-10.018 44.948 0 .753 5.568 4.584 12.374 8.512 25.283 14.592 48.666 35.063 57.742 50.548 10.245 20.132 18.185 43.45 31.608 57.732 11.76 12.388 21.579 18.522 57.375 35.843 46.98 22.733 62.231 27.44 86.974 26.84 12.672-.308 16.053-.918 23.055-4.16zm433.944-33.786c21.121-5.586 56.4-24.857 91.874-50.188 20.062-14.325 24.484-19.136 26.702-29.05.642-59.456 16.154-118.195 51.036-160.272 10.466-12.433 20.838-24.943 31.181-37.478-15.147-56.515-37.339-101.348-55.107-138.161-39.45-81.525-50.74-109.006-59.67-145.243-2.28-9.254-4.38-17.059-4.664-17.344-.285-.284-6.82 3.059-14.522 7.43-44.131 25.04-71.651 34.547-99.859 34.494-22.64-.042-41.236-5.862-61.314-19.19-4.294-2.849-8.083-4.904-8.42-4.566-1.213 1.213-15.082 31.557-24.766 54.187-27.89 65.169-43.44 116.072-52.492 171.826-4.221 25.998-5.181 75.142-1.963 100.46 11.275 88.694 56.63 160.99 140.764 224.375 20.078 15.127 18.363 14.764 41.22 8.72zm158.591-90.606c26.411-20.837 80.382-91.437 113.043-138.143-7.286 3.036-20.763 20.35-25.606 9.093-2.381-5.17-4.44-20.659-30.103-21.815-50.484 3.941-97.35 162.232-57.334 150.865zM304.894 1200.63c56.241-69.917 95.368-193.246 98.555-335.823 18.664-302.638 342.813-274.728 332.561-12.209 0 65.619.074 133.695 41.805 156.05 68.06-59.52 110.19-165.423 110.525-233.697 7.986-413.875 390.18-379.027 374.926-31.82-1.903 156.702 55.327 177.593 124.325 270.115 14.595 19.571 36.79 46.67 38.226 46.67 1.544 0 19.26-54.462 25.301-77.782 10.516-40.591 18.389-84.77 24.066-135.058 10.19-90.256-7.1-205.706-45.05-300.829-63.112-158.197-183.22-287.292-336.007-361.15-119.693-57.861-249.835-79.218-381.864-62.667-257.039 32.224-472.692 206.152-557.876 449.937-17.012 48.686-28.732 101.217-34.943 156.622-3.46 30.856-3.466 109.192-.012 139.664 9.884 87.19 32.025 161.883 70.32 237.224 26.833 49.859 53.055 90.494 85.519 129.634 10.615-11.633 21.193-23.823 29.623-34.881zm334.304-271.285c9.534-9.07 13.782-20.031 11.568-29.849-2.28-10.107-7.425-13.49-49.38-32.465-21.466-9.71-41.878-18.393-45.358-19.298-17.483-4.543-45.06 8.024-80.496 36.683-7.306 5.909-14.581 11.788-16.166 13.064 28.658 34.984 109.692 45.15 169.31 6.872 4.526-3.284 5.4 1.446-3.74 8.023-52.528 35.163-115.338 33.74-161.631-3.18-12.43-11.968-10.12-2.44-7.557 7.178 3.837 13.879 46.779 46.734 72.892 55.77 34.914 4.264 80.974-18.158 110.558-42.798zM490.642 861.37c-23.694-20.928 4.988-61.59 19.53-14.373 7.847-2.41 7.982-2.98 16.94-8.087-21.64-94.62-94.35-23.63-53.114 35.884 3.062-1.807 13.77-10.061 16.644-13.424zm70.492-24.63c5.112 4.423 14.05 7.672 18.976 10.287 13.704-48.848 58.993-22.738 35.715 18.632 1.27 1.27 18.423 7.423 20.922 7.505 43.793-88.243-59.24-125.052-75.613-36.425zm515.904 11.884c30.412-10.191 66.966-31.393 81.859-47.478 9.758-10.541 13.361-20.16 10.297-27.493-4.412-10.56-19.38-22.203-41.166-32.018-26.844-11.684-57.249-29.75-82.82-30.065-17.63-.113-26.337 5.262-73.907 45.623-11.409 9.68-20.713 17.953-20.675 18.385 68.435 49.757 140.984 27.574 194.417 8.074 6.335-1.747 3.87 2.622.26 5.64-110.688 45.494-147.14 22.469-195.48-5.282-1.824 0-.336 6.574 2.326 11.792 9.567 18.754 40.682 40.077 79.019 54.151 16.82 6.175 24.109 5.964 45.87-1.329zm-87.082-119.067c-39.215-46.844 6.162-86.64 17.776-16.126 6.359-2.912 11.09-5.363 17.78-8.706 8.134-135.264-138.065-76.99-54.26 36.99 6.619-3.944 11.77-7.232 18.704-12.158zm75.905-24.539c8.297.753 17.251 5.871 25.217 7.616 10.662-64.1 58.984-43.837 43.403 13.525 6.205 5.155 17.057 8.779 23.962 14.142 40.965-137.992-71.077-162.958-92.582-35.283z" />
</svg>