<svg xmlns="http://www.w3.org/2000/svg" width="1600" height="1600">
  <circle cx="800" cy="800" r="800" style="fill:#000" />
  <path
    d="M820.58 129.096c71.329-1.187 141.338 17.32 208.523 39.356 119.31 40.95 224.45 118.233 301.358 216.93 80.068 100.225 133.078 224.14 143.071 351.392 6.08 66.929 5.823 107.782-17.093 207.809-63.671-42.885-106.775-246.999-110.455-299.532-26.94-140.187-86.757-211.985-220.522-177.204-128.232 40.485-129.53 140.262-120.132 254.396 2.286 73.72-14.797 153.671-70.706 206.424-34.323-53.639-18.963-164.024-33.13-220.669-14.897-52.864-59.445-101.471-117.358-105.148-124.722-8.121-178.918 64.99-172.662 173.295-2.18 45.225 2.803 91.227-5.958 135.895-11.713 44.987-31.451 85.072-64.17 118.13-3.578-65.736-2.198-136.84-38.378-195.489-24.205-39.108-73.256-54.743-117.63-49.267-58.182 2.87-104.775 57.227-110.13 112.592-16.7 79.271 3.783 194.429-61.592 238.323-4.675-5.002-11.392-15.033-15.127-22.536-81.766-153.95-102.697-339.152-54.027-506.485 51.508-176.164 179.414-329.38 346.43-410.074 99.341-50.001 211.748-72.056 322.899-68.158l6.789.02z"
    style="fill:#fff" />
  <path
    d="M469.803 1050.401c-50.11 43.104-96.575 64.044-153.038 16.933-2.042 33.837-52.744 107.842-39.902 146.36 38.607 67.385 148.133 158.628 231.075 181.77 100.774-170.005 10.442-206.415-38.135-345.063z"
    style="fill:#fff" />
  <path
    d="M379.485 978.883c-5.83.146-11.75.597-17.263 2.648-17.328 7.467-33.66 19.557-45.377 32.361-1.622 1.91-3.311 3.818-4.637 5.937 71.999 54.872 98.216 16.767 153.408.386-37.814 43.282-128.372 60.908-155.041 2.813-1.585 2.992-3.146 7.473-2.172 10.782 15.383 42.32 50.798 46.393 67.463 48.28 34.644.061 55.505-15.505 76.279-28.426 11.417-7.798 23.967-22.439 16.223-35.235-17.952-18.924-66.81-36.857-88.883-39.546z"
    style="fill:#fd5" />
  <path
    d="M207.905 279.308c17.78 22.498 40.815 7.932 56.232 1.196-14.999 17.686-47.416 21.465-57.041-.034-1.312 2.406-.859 5.474.725 7.638 11.27 17 34.113 16.217 52.223 4.497 3.945-2.252 8.189-6.047 7.952-10.46-1.375-6.473-8.625-8.155-13.38-10.458-18.84-9.547-22.72-14.396-46.71 7.621z"
    style="fill:#fd5" transform="scale(3.125)" />
  <path
    d="M215.814 243.497c-2.758-.103-5.271 1.59-6.85 3.749-2.753 3.805-3.46 8.795-2.731 13.357.624 3.678 2.276 7.242 4.908 9.91-4.057-21.08 8.037-25.551 11.232-8.41 6.24-6.094 2.107-18.873-6.559-18.606zM253.395 239.468c-3.56.01-6.827 2.002-9.075 4.662-2.338 2.74-3.985 6.11-4.575 9.67-.11 1.525-.272 3.118.167 4.604.533 1.596 1.833 2.888 3.45 3.374.35.091.733.366 1.085.323.806-4.06 1.996-9.135 5.53-10.975 9.558-3.131 10.622 9.724 9.06 15.818-.144.685-.393 1.403-.457 2.075 1.788.54 3.806.826 5.585.107 2.19-.96 3.136-3.385 3.642-5.563.855-3.656.922-7.547-.24-11.147-1.306-4.15-3.666-8.122-7.237-10.702-2.013-1.426-4.455-2.29-6.935-2.246z"
    style="fill:#fff" transform="scale(3.125)" />
  <path
    d="M338.553 923.851c-33.298 3.994-38.794 52.676-11.73 71.67-13.533-43.724 11.602-64.574 28.324-22.22 4.082-.554 8.674-1.775 12.314-2.953-2.17-18.186-8.309-46.96-28.908-46.497zM433.958 915.046c-19.366 1.205-37.305 20.243-36.328 39.104-.382 7.864 4.94 15.328 11.939 18.545 3.251-33.206 39.626-40.81 40.623-1.94-.006 6.822-2.457 13.27-3.952 19.83 5.212 2.473 11.279 5.018 16.281 6.593 24.39-37.497 2.762-84.765-28.563-82.132z"
    style="fill:#fff" />
  <path
    d="M383.265 201.12c-8.975.713-15.041 8.967-16.102 16.98-1.142 5.412.336 9.474 6.408 9.574 2.1-26.264 22.58-11.744 14.851 6.812-.163.42-.34.837-.482 1.265 2.586.757 5.184 1.516 7.774 2.233 2-3.885 3.763-7.975 4.446-12.32 1.146-12.63-5.439-24.685-16.895-24.544zM333.662 238.088c1.748-.434 1.985-.768 2.676-1.379-1.088-3.58-2.653-7.117-2.714-10.917.013-4.441 3.868-10.574 8.245-7.534 2.979 2.583 4.014 6.046 4.743 9.444 4.57-.5 5.372-2.874 5.192-6.914-.839-6.627-3.88-15.639-10.93-15.592-15.91 1.125-9.986 28.107-7.212 32.892z"
    style="fill:#fff" transform="scale(3.125)" />
  <path
    d="M359.199 229.715c-10.858 1.239-18.245 8.547-25.749 14.543-1.291 1.047-2.468 2.25-3.338 3.675 26.015 22.514 50.863 4.979 65.735.63-17.828 19.872-59.385 18.155-66.094.088-.648 1.209-.653 2.439-.586 3.808 2.993 10.69 19.572 21.859 31.489 22.609 11.046-.933 37.504-15.16 39.23-23.687.415-2.743-.897-5.565-3.123-7.177-13.095-7.443-24.373-14.098-37.564-14.489z"
    style="fill:#fd5" transform="scale(3.125)" />
  <path
    d="M400.753 260.22c-27.36 18.493-44.982 30.086-67.635 4.767-1.25 18.242-14.033 30.29-27.138 46.667 20.477 34.991 25.41 82.308 29.523 96.315 20.977-.262 19.75 24.619 23.17 32.827 38.384-18.139 93.553-69.73 71.883-107.033-13.607-24.945-21.083-48.72-29.707-73.18zM268.982 292.078c-24.338 16.903-39.231 19.555-59.244 5.075-2.833 17.002-9.732 34.64-15.976 48.389-5.864 11.63-4.457 11.031 5.555 23.449 14.053 16.54 19.706 41.651 16.935 63.504 71.551 111.143 87.943-111.067 52.816-140.23z"
    style="fill:#fff" transform="scale(3.125)" />
  <path
    d="M539.493 1368.983c-4.093 8.896-14.567 24.86-13.31 34.996 21.56 18.015 123.038 39.921 169.91 47.019 17.794 2.995-6.143-41.243-9.53-49.235-13.013-23.249-31.719-24.442-52.756-13.8-72.103 35.714-78.562-29.302-84.878-28.234-6.468.383-6.777 4.9-9.436 9.253z"
    style="fill:#fd5" />
  <path
    d="M296.994 408.6c-13.554-2.54-8.849 37.435-15.235 56.992 23.443-.644 55.214-10.414 72.54-22.54-8.078-38.862-13.387-25.622-39.819-17.796-14.373 2.534-14.04-14.789-17.486-16.656z"
    style="fill:#fd5" transform="scale(3.125)" />
</svg>