<svg xmlns="http://www.w3.org/2000/svg" width="1600" height="1600" xmlns:v="https://vecta.io/nano">
  <circle fill="#0a0a0a" cx="800" cy="800" r="800" />
  <path
    d="M820.58 129.096c71.329-1.187 141.338 17.319 208.523 39.356 119.31 40.949 224.45 118.233 301.358 216.929 80.068 100.225 133.078 224.14 143.071 351.392 6.08 66.929 5.822 107.782-17.094 207.809-63.671-42.885-106.775-246.999-110.455-299.532-26.94-140.188-86.757-211.986-220.522-177.205-128.232 40.486-129.531 140.263-120.132 254.397 2.286 73.72-14.797 153.671-70.706 206.424-34.323-53.639-18.964-164.025-33.131-220.669-14.896-52.865-59.444-101.471-117.358-105.149-124.722-8.121-178.918 64.991-172.662 173.295-2.18 45.225 2.803 91.227-5.958 135.895-11.714 44.987-31.451 85.071-64.17 118.13-3.578-65.736-2.199-136.841-38.378-195.489-24.205-39.108-73.256-54.743-117.63-49.267-58.182 2.869-104.775 57.227-110.129 112.592-16.7 79.271 3.782 194.429-61.593 238.323-4.675-5.002-11.392-15.033-15.127-22.537-81.765-153.95-102.697-339.152-54.026-506.484 51.508-176.164 179.414-329.381 346.429-410.075 99.342-50.001 211.748-72.056 322.899-68.157l6.789.02zm-350.777 921.305c-50.11 43.104-96.575 64.044-153.038 16.933-2.042 33.837-52.744 107.842-39.901 146.36 38.606 67.385 148.133 158.628 231.075 181.771 100.773-170.005 10.442-206.416-38.136-345.064z"
    fill="#e5e5e5" />
  <path
    d="M379.485 978.883c-5.83.147-11.75.597-17.264 2.649-17.328 7.466-33.66 19.556-45.376 32.361-1.623 1.909-3.312 3.818-4.638 5.937 71.999 54.871 98.216 16.767 153.408.385-37.814 43.282-128.372 60.908-155.041 2.813-1.585 2.992-3.146 7.473-2.172 10.782 15.383 42.321 50.798 46.393 67.463 48.28 34.644.061 55.506-15.505 76.279-28.426 11.418-7.797 23.968-22.438 16.223-35.235-17.952-18.924-66.81-36.857-88.883-39.546zm270.22-106.043c55.56 70.307 127.545 24.786 175.725 3.738-46.87 55.268-148.174 67.076-178.254-.106-4.098 7.516-2.683 17.104 2.268 23.868 35.215 53.125 106.601 50.677 163.196 14.053 12.329-7.039 25.59-18.897 24.851-32.688-4.298-20.226-26.955-25.485-41.815-32.679-58.876-29.835-71.001-44.988-145.97 23.814z"
    fill="#bfa697" />
  <path
    d="M674.422 760.929c-8.62-.321-16.475 4.967-21.409 11.716-8.603 11.89-10.814 27.483-8.533 41.742 1.95 11.494 7.113 22.632 15.336 30.97-12.678-65.876 25.117-79.85 35.101-26.285 19.503-19.042 6.586-58.977-20.495-58.143zM791.86 748.34c-11.124.028-21.332 6.256-28.358 14.567-7.305 8.561-12.455 19.097-14.298 30.222-.341 4.764-.848 9.741.522 14.386 1.665 4.987 5.729 9.024 10.78 10.544 1.093.284 2.294 1.143 3.393 1.008 2.518-12.685 6.238-28.546 17.281-34.296 29.868-9.786 33.193 30.386 28.313 49.43-.449 2.14-1.229 4.384-1.43 6.487 5.587 1.683 11.897 2.579 17.454.333 6.844-2.998 9.799-10.579 11.381-17.384 2.674-11.427 2.883-23.587-.751-34.834-4.078-12.972-11.455-25.382-22.613-33.444-6.29-4.457-13.921-7.154-21.673-7.018zM338.553 923.851c-33.298 3.994-38.794 52.676-11.729 71.67-13.534-43.724 11.601-64.574 28.323-22.221 4.082-.553 8.674-1.774 12.314-2.953-2.17-18.185-8.308-46.959-28.908-46.496zm95.405-8.805c-19.366 1.205-37.306 20.242-36.328 39.103-.382 7.865 4.94 15.329 11.939 18.545 3.251-33.206 39.626-40.81 40.623-1.939-.006 6.822-2.457 13.269-3.953 19.83 5.212 2.473 11.279 5.018 16.282 6.593 24.389-37.497 2.762-84.765-28.563-82.132zm763.747-286.545c-28.047 2.228-47.002 28.024-50.318 53.065-3.568 16.912 1.048 29.605 20.024 29.917 6.562-82.077 70.561-36.701 46.41 21.286-.508 1.315-1.062 2.616-1.505 3.954l24.293 6.979c6.247-12.141 11.761-24.923 13.895-38.502 3.579-39.468-16.998-77.14-52.799-76.699zm-155.008 115.526c5.462-1.358 6.202-2.399 8.363-4.308-3.402-11.19-8.293-22.242-8.483-34.117.041-13.88 12.087-33.044 25.766-23.544 9.309 8.072 12.545 18.894 14.821 29.513 14.28-1.566 16.789-8.983 16.225-21.606-2.621-20.71-12.125-48.873-34.153-48.727-49.721 3.515-31.208 87.835-22.539 102.789z"
    fill="#e5e5e5" />
  <path
    d="M1122.499 717.862c-33.93 3.871-57.014 26.707-80.464 45.447-4.037 3.27-7.714 7.028-10.432 11.482 81.297 70.357 158.948 15.559 205.424 1.967-55.714 62.103-185.58 56.735-206.546.276-2.025 3.779-2.039 7.623-1.832 11.901 9.354 33.406 61.165 68.31 98.404 70.653 34.52-2.913 117.202-47.376 122.597-74.022 1.293-8.572-2.807-17.39-9.761-22.427-40.923-23.258-76.168-44.056-117.389-45.277z"
    fill="#bfa697" />
  <path
    d="M1252.355 813.19c-85.5 57.792-140.57 94.02-211.359 14.897-3.906 57.007-43.853 94.655-84.806 145.836 63.992 109.347 79.405 257.211 92.261 300.983 65.552-.818 61.715 76.933 72.403 102.586 119.953-56.684 292.356-217.91 224.637-334.479-42.522-77.953-65.886-152.253-92.834-228.69zm-411.783 99.557c-76.059 52.822-122.598 61.107-185.14 15.857-8.851 53.134-30.41 108.254-49.925 151.216-18.324 36.345-13.928 34.475 17.36 73.278 43.917 51.688 61.582 130.162 52.921 198.451 223.6 347.325 274.824-347.086 165.053-438.221z"
    fill="#e5e5e5" />
  <path
    d="M539.493 1368.983c-4.093 8.897-14.567 24.861-13.31 34.997 21.56 18.015 123.038 39.921 169.91 47.018 17.794 2.995-6.143-41.243-9.53-49.234-13.013-23.249-31.719-24.443-52.756-13.801-72.103 35.714-78.562-29.302-84.878-28.233-6.468.383-6.778 4.899-9.437 9.253zm388.615-92.106c-42.356-7.934-27.652 116.985-47.607 178.102 73.257-2.012 172.543-32.546 226.688-70.438-25.245-121.445-41.835-80.07-124.435-55.614-44.918 7.921-43.877-46.214-54.646-52.05z"
    fill="#bfa697" />
</svg>