<svg xmlns="http://www.w3.org/2000/svg" width="1600" height="1600">
  <style>
    .txt {
      font-size: 128px;
      font-family: monospace;
      fill: #009600
    }
  </style>
  <circle cx="800" cy="800" r="750" fill="#333" /><text>
    <tspan x="450" y="250" class="txt">1</tspan>
    <tspan x="650" y="250" class="txt">0</tspan>
    <tspan x="850" y="250" class="txt">1</tspan>
    <tspan x="1050" y="250" class="txt">0</tspan>
    <tspan x="250" y="450" class="txt">1</tspan>
    <tspan x="450" y="450" class="txt">0</tspan>
    <tspan x="650" y="450" class="txt">0</tspan>
    <tspan x="850" y="450" class="txt">1</tspan>
    <tspan x="1050" y="450" class="txt">1</tspan>
    <tspan x="1250" y="450" class="txt">0</tspan>
    <tspan x="250" y="650" class="txt">0</tspan>
    <tspan x="450" y="650" class="txt">1</tspan>
    <tspan x="1050" y="650" class="txt">0</tspan>
    <tspan x="1250" y="650" class="txt">1</tspan>
    <tspan x="250" y="850" class="txt">0</tspan>
    <tspan x="450" y="850" class="txt">0</tspan>
    <tspan x="1050" y="850" class="txt">1</tspan>
    <tspan x="1250" y="850" class="txt">0</tspan>
    <tspan x="250" y="1050" class="txt">1</tspan>
    <tspan x="450" y="1050" class="txt">0</tspan>
    <tspan x="1250" y="1050" class="txt">1</tspan>
    <tspan x="250" y="1250" class="txt">0</tspan>
    <tspan x="1250" y="1250" class="txt">0</tspan>
  </text>
  <path fill="#fff" d="M650 500h250l300 950-750 50Z" />
  <path
    d="M639 707c0-59 96-97 120-98 23 0 179 63 169 78-9 14-154 228-290 20zM459.62 1186.342c131.521 83.44 185.261 135.765 183.14 297.692-2.121 161.928-389.616-150.613-313.955-182.433 75.66-31.82 130.814-115.259 130.814-115.259zM953.18 1472.72c43.84-256.679 13.435-282.842 111.016-262.336 97.58 20.506 148.492-21.213 168.998 47.376 20.506 68.59 36.77 199.404-280.014 214.96z"
    style="fill:#fd5" />
  <path
    d="M1.5 850.5c10.803 151.462 73.762 311.016 150.42 419 42.73 59.18 92.62 110.98 149.58 156.55 70.87 56.7 148.65 98.77 234 129.14 52.23 18.59 108.94 31.88 164 38.46 122.82 12.871 239.888 1.933 349-32.49 34.23-10.94 67.68-24.76 100-40.4 193.73-93.77 339.14-258.08 409.66-461.26 48.302-148.476 56.218-302.094 19.71-452-45.673-181.307-147.419-332.073-283.37-438.58C1144.67 61.379 1003.427 11.535 833.5-.36c-471.495 0-832 302.687-832 850.86Zm1262 441c-5.498-103.67-89.48-78.6-91.467-85.183-23.358-347.768-152.23-396.672-168.594-596.939C1004.082 390.975 931.99 335.5 797.5 335.5c-118.48-1.17-191.148 92.821-218.294 376.857-30.858 194.784-138.083 255.625-176.45 507.074-15.82 45.019-63.046 65.945-82.256 58.019-472.692-524.902-15.511-1272.195 615-1143.74 143.35 30.3 269.38 101.92 367.83 210.79 80.57 89.1 140.23 207.54 161.59 326 25.92 147.697 4.156 301.463-61.17 434-25.67 51.34-58.18 98.93-96.1 142-8.66 9.84-34.88 38.36-44.15 45zM886 652.643c-9.743-4.156-14.96-7.369-25.5-10.143 17.607-62.878-31.216-109.365-50-24.786 0 0-16.044-9.922-27-9.214 10.277-122.219 135.36-124.71 102.5 44.143zM734.5 607.5c-13.299 3.794-2.318.732-18.429 6.929-2.86-62.726-72.102-44.213-31.928 20.142-3 1.89-14.373 16.599-17.633 16.059-82.022-122.017 70.037-205.486 67.99-43.13zm14 10.29c10.53-.99 23.8-.37 34 2.45 19.39 5.38 33.38 15.48 51 24l40 15.86c15.49 6.31 34.12 15.59 32.91 35.4-.88 14.33-12.76 28.57-23.91 36.57-17.83 12.81-29.33 14.57-47 23.69-60.195 43.503-191.644-.07-191.06-57.176.014-1.402 50.555 27.125 106.28 27.54 63.279.47 127.486-21.206 133.144-28.767 14.235-21.532-77.074 25.159-139.936 17.647-62.44-7.46-101.2-21.781-92-30.063L693.5 648.06c19.2-16.11 29.13-26.32 55-30.27zm147 151.71c16.2 122.516 156.5 267.335 162.073 391-28.531 36.43-54.394-6.17-89.62 51.857-31.28 68.212-19.843 177.993-56.78 246.286-68.572 24.145-194.818 24.577-248.244-.134-8.25-86.162-22.348-182.047-120.979-267.099 30.817-152.801 104.225-270.214 136.55-400.91 88.24 58.136 142.593-5.132 217-21zm-271 685c-69.83-13.02-221.717-80.87-272.697-146.707 105.825-2.889 86.25-119.955 115.88-102.486 98.733 27.078 141.85 146.435 156.817 249.193Zm392-222c20.967 56.951 70.841 73.366 123 45.14 25.732-13.708 42.214-33.9 70-19.73 11.73 6.38 17.68 25.39 21.41 37.59 1.36 4.42 6.23 17.06 4.95 21-67.568 65.8-185.637 115.703-268.36 139 37.508-66.055 2.265-172.147 49-223z" />
  <path
    d="M610.233 605.454c-20.86-54.8 149.553-63.993 129.754 6.718-19.799 70.71-122.683 60.811-129.754-6.718zM921.096 604.922c20.86-54.801-149.554-63.994-129.755 6.717 19.8 70.71 122.683 60.811 129.755-6.717z"
    style="fill:#373;opacity:.95" />
  <path
    d="M646.505 559.083c-5.54.79-8.58.52-14 .58l-18 1.58c-3.38.48-8.81.6-10.83 3.72-1.67 2.6-1.21 11.33-1.17 14.7l1.83 22c1.68 17.56 3.68 33.74 17.21 46.91 17.55 17.09 44.15 17.35 66.96 17.09 5.06-.06 10.09-.95 15-2.13 20.2-4.87 29.86-15.89 37.55-34.87 2.47-6.11 4.08-12.52 5.2-19 .47-2.71 1.27-10.03 2.27-12 2.55-4.97 9.51-8.73 14.98-9.21 6.15-.55 16.03 3.69 18.98 9.25 1.16 2.18 1.81 10.01 2.3 12.96.83 4.96 3.28 13.33 5.17 18 7.56 18.66 16.64 29.67 36.55 34.63 5.23 1.3 10.6 2.3 16 2.37 22.42.26 48.31.06 65.96-16.18 14.54-13.38 16.46-30.55 18.21-48.82l1.83-22c.04-3.69.58-11.67-1.85-14.44-1.99-2.26-6.33-2.43-9.15-2.83-7.89-1.13-16.03-1.72-24-1.73l-17-1c-21.64-.03-39.49-.39-61 4-19.77 4.04-29.33 15.2-51 14.41-23.16-.85-24.92-8.23-44-13.25-17.11-4.51-56.52-6.86-74-4.74zm14 9.86c13.23-1.23 39.95 1.26 53 4.14 6.63 1.47 15.12 3.16 19.57 8.67 3.96 4.9 3.45 11.98 3.43 17.91-.05 16.42-9.16 41.27-24 49.64-10.53 5.94-27.14 6.5-39 6.36-12.63-.15-32-4.64-41.99-12.53-10.6-8.37-17.78-29.15-16.83-42.47.46-6.38 2.51-18.08 7.09-22.66 8.2-8.22 27.85-7.49 38.73-9.06zm187 .2c14.75-.76 29.42-.36 44 2.11 5.59.94 13.49 2.67 17.61 6.8 4.51 4.51 6.31 13.43 6.39 19.61.09 7.8.38 13.34-1.74 21-2.21 7.96-6.3 17.06-12.35 22.82-12.97 12.34-36.89 14.38-53.91 14.18-9.31-.11-24.06-2.53-31.71-7.92-10.98-7.74-21.12-30.67-21.29-44.08v-8c.01-4.69-.13-8.91 2.7-12.96 3.5-5.02 9.62-7.11 15.3-8.56 11.45-2.94 23.27-4 35-5z"
    style="fill:#4d4d4d" />
</svg>